<?xml version="1.0" encoding="utf-8"?>
<svg version="1.1" xmlns:xlink="http://www.w3.org/1999/xlink" width="200px" height="27px" xmlns="http://www.w3.org/2000/svg">
  <defs>
    <mask fill="white" id="clip5">
      <path d="M 0 27  L 0 0  L 142.666666666667 0  L 200 0  L 200 27  L 107.333333333333 27  L 0 27  Z " fill-rule="evenodd" />
    </mask>
  </defs>
  <g transform="matrix(1 0 0 1 -384 -39 )">
    <path d="M 0 27  L 0 0  L 142.666666666667 0  L 200 0  L 200 27  L 107.333333333333 27  L 0 27  Z " fill-rule="nonzero" fill="#ffffff" stroke="none" transform="matrix(1 0 0 1 384 39 )" />
    <path d="M 0 27  L 0 0  L 142.666666666667 0  L 200 0  L 200 27  L 107.333333333333 27  L 0 27  Z " stroke-width="2" stroke="#797979" fill="none" transform="matrix(1 0 0 1 384 39 )" mask="url(#clip5)" />
  </g>
</svg>