<?xml version="1.0" encoding="utf-8"?>
<svg version="1.1" xmlns:xlink="http://www.w3.org/1999/xlink" width="13px" height="13px" xmlns="http://www.w3.org/2000/svg">
  <g transform="matrix(1 0 0 1 -10 -10 )">
    <path d="M 16.5 10  C 20.14 10  23 12.86  23 16.5  C 23 20.14  20.14 23  16.5 23  C 12.86 23  10 20.14  10 16.5  C 10 12.86  12.86 10  16.5 10  Z " fill-rule="nonzero" fill="#ffffff" stroke="none" />
    <path d="M 16.5 10.5  C 19.86 10.5  22.5 13.14  22.5 16.5  C 22.5 19.86  19.86 22.5  16.5 22.5  C 13.14 22.5  10.5 19.86  10.5 16.5  C 10.5 13.14  13.14 10.5  16.5 10.5  Z " stroke-width="1" stroke="#797979" fill="none" />
  </g>
</svg>