<?xml version="1.0" encoding="utf-8"?>
<svg version="1.1" xmlns:xlink="http://www.w3.org/1999/xlink" width="20px" height="13px" xmlns="http://www.w3.org/2000/svg">
  <g transform="matrix(1 0 0 1 -10 -856 )">
    <path d="M 20 856  C 25.6 856  30 858.86  30 862.5  C 30 866.14  25.6 869  20 869  C 14.4 869  10 866.14  10 862.5  C 10 858.86  14.4 856  20 856  Z " fill-rule="nonzero" fill="#ffffff" stroke="none" />
    <path d="M 20 856.5  C 25.32 856.5  29.5 859.14  29.5 862.5  C 29.5 865.86  25.32 868.5  20 868.5  C 14.68 868.5  10.5 865.86  10.5 862.5  C 10.5 859.14  14.68 856.5  20 856.5  Z " stroke-width="1" stroke="#797979" fill="none" />
  </g>
</svg>